<svg xmlns="http://www.w3.org/2000/svg" viewBox="0 0 24 24"><path fill-rule="evenodd" d="M13.33 1a74.32 74.32 0 012.344.03l.205.007.656.028c1.171.053 1.97.24 2.67.512a5.399 5.399 0 011.949 1.268 5.391 5.391 0 011.269 1.95c.272.699.458 1.498.511 2.669.01.202.017.38.024.553l.008.205.007.206c.019.624.026 1.349.027 2.99v1.164c-.002 2.46-.016 2.86-.066 3.953-.053 1.171-.24 1.97-.511 2.67a5.399 5.399 0 01-1.27 1.949 5.399 5.399 0 01-1.948 1.269c-.7.272-1.499.458-2.67.511-1.093.05-1.492.064-3.953.066h-1.164a102.67 102.67 0 01-2.99-.027l-.206-.007-.205-.008-.553-.024c-1.17-.053-1.97-.24-2.67-.511a5.391 5.391 0 01-1.949-1.27 5.399 5.399 0 01-1.268-1.948c-.273-.7-.459-1.499-.512-2.67l-.028-.656-.007-.205A74.32 74.32 0 011 13.33v-2.66c.004-1.282.013-1.869.033-2.447l.008-.205.024-.553c.053-1.17.24-1.97.512-2.67a5.391 5.391 0 011.268-1.949 5.391 5.391 0 011.95-1.268c.699-.273 1.498-.459 2.669-.512l.553-.024.205-.008c.578-.02 1.165-.03 2.448-.033zm-.254 1.982h-2.153c-1.972.003-2.369.017-3.368.063-1.073.049-1.655.229-2.043.379-.514.2-.88.438-1.265.823-.385.385-.623.75-.823 1.265-.15.388-.33.97-.379 2.043-.046 1-.06 1.396-.063 3.368v2.153c.003 1.972.017 2.368.063 3.369.049 1.072.229 1.654.379 2.042.2.514.438.88.823 1.265.385.385.75.624 1.265.823.388.15.97.33 2.043.38.24.01.445.02.645.027l.2.007c.536.018 1.11.026 2.294.028h.473l.26.001H13.306a72.452 72.452 0 002.294-.029l.2-.007.646-.028c1.072-.05 1.654-.228 2.042-.38a3.4 3.4 0 001.265-.822 3.4 3.4 0 00.823-1.265c.15-.388.33-.97.38-2.042.01-.24.02-.446.027-.646l.007-.2c.018-.536.026-1.11.028-2.294v-.473l.001-.26v-1.144-.734a72.468 72.468 0 00-.029-2.294l-.007-.2-.028-.645c-.05-1.073-.228-1.655-.38-2.043a3.393 3.393 0 00-.822-1.265 3.414 3.414 0 00-1.265-.823c-.388-.15-.97-.33-2.042-.379-1-.046-1.397-.06-3.369-.063zM12 6.35a5.649 5.649 0 110 11.298A5.649 5.649 0 0112 6.35zm0 1.982a3.667 3.667 0 100 7.334 3.667 3.667 0 000-7.334zm5.872-3.526a1.32 1.32 0 110 2.641 1.32 1.32 0 010-2.64z"/></svg>