<svg xmlns="http://www.w3.org/2000/svg" viewBox="0 0 24 24"><path fill-rule="evenodd" d="M13.172 10.089c.008-.014.02-.028.027-.042v.042h-.027zM2.254 21.117h4.285V8.219H2.254v12.898zM6.822 4.229C6.795 2.964 5.892 2 4.425 2 2.958 2 2 2.964 2 4.229c0 1.239.93 2.23 2.368 2.23h.028c1.496 0 2.426-.991 2.426-2.23zM22 13.722c0-3.964-2.116-5.805-4.937-5.805-2.278 0-3.294 1.25-3.864 2.13V8.219H8.913c.057 1.21 0 12.898 0 12.898h4.286v-7.203c0-.386.027-.772.143-1.046.309-.77 1.014-1.569 2.198-1.569 1.552 0 2.172 1.183 2.172 2.917v6.9H22v-7.394z"/></svg>