<svg xmlns="http://www.w3.org/2000/svg" xmlns:xlink="http://www.w3.org/1999/xlink" viewBox="0 0 24 24"><defs><path id="a" d="M17.16 12.893c.06.158.09.321.09.484 0 .327-.113.644-.304.905a1.438 1.438 0 01-.765.541h.001l-.007.003-.005.001c-.145.05-.295.073-.444.073a1.58 1.58 0 01-.966-.34 1.45 1.45 0 01-.542-.884v-.004s0-.002-.002-.003h.001a1.339 1.339 0 01-.03-.28c0-.315.106-.618.283-.868s.426-.446.717-.548h.003s0-.002.002-.002c.164-.06.338-.091.511-.091.314 0 .622.095.883.268a1.436 1.436 0 01.572.74c0 .002.001.003.003.005h-.002zm-.96 3.866a.757.757 0 00-.415-.128.646.646 0 00-.36.109 6.988 6.988 0 01-3.546.98c-.93 0-1.852-.197-2.689-.607l-.005-.003h-.003c-.127-.053-.271-.163-.427-.267a1.662 1.662 0 00-.256-.14.683.683 0 00-.577-.004l-.013.006a.671.671 0 00-.334.278.791.791 0 00-.113.414c0 .13.03.26.094.378.06.113.153.21.275.276 1.196.807 2.604 1.171 4.018 1.17a8.758 8.758 0 003.697-.832l.006-.003.006-.004c.15-.089.35-.168.539-.285a1.19 1.19 0 00.263-.218.818.818 0 00.176-.327.697.697 0 00-.047-.466.805.805 0 00-.29-.327zm-8.395-1.94a1.36 1.36 0 00.473.085c.388 0 .765-.159 1.052-.418.285-.26.48-.628.48-1.048v-.034l.001-.06a1.43 1.43 0 00-.475-1.048 1.566 1.566 0 00-1.05-.42c-.105 0-.21.011-.314.036h-.006a1.527 1.527 0 00-1.137 1.018v.003a1.381 1.381 0 00-.071.44c0 .323.107.638.29.897a1.44 1.44 0 00.757.549zm16.19-3.766v.002a2.962 2.962 0 01-.495 1.776 3.258 3.258 0 01-1.154 1.07c.03.232.046.466.046.699 0 1.255-.433 2.489-1.186 3.478h-.002c-1.393 1.854-3.532 2.946-5.693 3.497l-.002.001c-1.152.28-2.34.424-3.528.424-1.77 0-3.54-.32-5.19-.982v-.001h-.002c-1.711-.705-3.343-1.827-4.342-3.47a5.65 5.65 0 01-.833-2.938c0-.234.015-.468.046-.7a3.356 3.356 0 01-1.13-1.042c-.309-.462-.505-1.001-.53-1.573v-.01c.001-.799.348-1.556.888-2.116.54-.558 1.278-.923 2.069-.923h.033a3.26 3.26 0 011.424.2l.002.002h.002c.324.137.644.3.93.527.093-.048.194-.103.307-.145 1.733-1.027 3.748-1.423 5.712-1.537.017-.973.136-1.991.61-2.882.396-.74 1.08-1.317 1.897-1.517l.004-.001.004-.001c.311-.06.625-.088.936-.088.83 0 1.65.197 2.417.503.34-.512.825-.912 1.393-1.137l.006-.002.004-.003A3.52 3.52 0 0119.68 2c.373 0 .75.067 1.102.225v-.001h.001l.007.003c.505.195.934.555 1.236 1.002.304.45.483.987.483 1.54 0 .102-.006.204-.018.307v.007c-.061.715-.422 1.342-.935 1.789-.516.45-1.184.72-1.869.72-.11 0-.22-.005-.33-.02-.681-.053-1.314-.382-1.78-.87-.467-.489-.768-1.142-.768-1.846 0-.034.002-.07.004-.103-.638-.285-1.316-.52-1.99-.52-.096 0-.194.005-.291.016h-.002a1.52 1.52 0 00-1.2.823v.002c-.345.672-.413 1.456-.424 2.236 1.933.125 3.877.589 5.583 1.57h.002l.025.014c.032.019.093.052.147.08a3.34 3.34 0 01.382-.277 3.146 3.146 0 011.742-.514c.272 0 .544.034.808.102l.013.003.01.001v.001a3.23 3.23 0 011.613 1c.425.484.71 1.097.765 1.762zm-5.693-6.325a.9.9 0 00.003.08v.004c.013.336.171.649.413.88.24.231.563.374.89.375h.007a1.332 1.332 0 00.971-.37c.247-.23.409-.545.422-.884V4.81a.836.836 0 00.004-.077c0-.35-.164-.682-.42-.928a1.37 1.37 0 00-.933-.396c-.109 0-.216.014-.322.047h-.004l-.003.002a1.42 1.42 0 00-.726.472 1.256 1.256 0 00-.302.798zM4.035 9.908c-.259-.12-.526-.206-.79-.205-.044 0-.089.002-.132.007h-.007l-.006.001c-.379.011-.762.177-1.049.442-.288.263-.478.62-.493 1.012v.007a1.363 1.363 0 00.196.784c.094.16.217.305.355.43.443-.97 1.135-1.793 1.926-2.478zm16.837 4.746c0-.865-.312-1.733-.816-2.433-1.008-1.401-2.571-2.316-4.196-2.826l-.011-.003a13.047 13.047 0 00-3.841-.577c-1.308 0-2.614.194-3.865.58-1.625.515-3.193 1.423-4.197 2.828v.001a4.217 4.217 0 00-.808 2.442c0 .32.04.639.124.95v.001c.184.697.542 1.32 1.004 1.864a7.234 7.234 0 001.63 1.385c.13.082.264.16.4.237 1.735.967 3.733 1.392 5.716 1.392.336 0 .673-.012 1.007-.035 1.997-.165 4.002-.755 5.624-1.96a6.327 6.327 0 001.372-1.37c.38-.525.658-1.113.781-1.75l.001-.003c.051-.239.075-.48.075-.723zm1.577-3.441c0-.21-.049-.42-.154-.614l-.002-.003-.001-.003a1.5 1.5 0 00-.629-.657 1.82 1.82 0 00-.89-.227c-.282 0-.562.064-.812.19.793.688 1.488 1.515 1.939 2.49a1.63 1.63 0 00.36-.452c.12-.224.189-.476.189-.724z"/></defs><use fill-rule="evenodd" xlink:href="#a"/></svg>