<svg xmlns="http://www.w3.org/2000/svg" xmlns:xlink="http://www.w3.org/1999/xlink" viewBox="0 0 24 24"><defs><path id="a" d="M17.535 20.719H21C21 10.954 12.922 3 3 3v3.397c8.01 0 14.535 6.424 14.535 14.322zm-6.12 0h3.465c0-6.447-5.333-11.7-11.88-11.7v3.397c2.25 0 4.354.867 5.951 2.43a8.203 8.203 0 012.464 5.873zm-6.019-.023c1.317 0 2.397-1.046 2.397-2.351 0-1.294-1.08-2.351-2.397-2.351C4.07 15.994 3 17.05 3 18.345c0 1.305 1.069 2.351 2.396 2.351z"/></defs><use fill-rule="evenodd" xlink:href="#a"/></svg>