<svg xmlns="http://www.w3.org/2000/svg" xmlns:xlink="http://www.w3.org/1999/xlink" viewBox="0 0 24 24"><defs><path id="a" d="M12.213 2h-.055l-.38.004c-.908 0-3.984.257-5.435 3.56-.488 1.112-.371 3-.277 4.517l.033.544a.867.867 0 01-.428.095c-.288 0-.629-.092-1.012-.275a.806.806 0 00-.349-.072c-.449 0-.985.3-1.07.747-.06.322.082.791 1.101 1.2.092.037.203.072.32.11.42.136 1.057.34 1.23.754.089.214.053.49-.106.818l-.01.023c-.056.132-1.403 3.25-4.393 3.75a.462.462 0 00-.381.483c.004.07.02.14.048.208.225.533 1.171.923 2.895 1.195.057.079.117.358.154.528.036.168.073.342.126.525.052.18.187.394.534.394.14 0 .305-.033.497-.071.287-.057.68-.135 1.172-.135.273 0 .556.024.841.072.556.094 1.029.433 1.576.826.783.563 1.671 1.2 3.02 1.2.037 0 .074-.001.111-.004.044.002.1.004.161.004 1.35 0 2.237-.637 3.02-1.2.548-.393 1.02-.732 1.576-.826.285-.048.568-.072.84-.072.47 0 .842.06 1.173.126.208.042.375.063.497.063h.025a.497.497 0 00.51-.387c.051-.18.088-.348.125-.519.037-.17.096-.448.154-.526 1.724-.272 2.67-.662 2.894-1.193a.626.626 0 00.05-.209.461.461 0 00-.382-.483c-2.991-.5-4.337-3.617-4.393-3.75a.334.334 0 00-.01-.022c-.16-.329-.195-.604-.106-.818.173-.413.809-.618 1.23-.754.118-.038.228-.074.32-.11.745-.3 1.12-.667 1.111-1.092-.006-.334-.262-.632-.67-.78-.138-.058-.3-.09-.46-.09-.108 0-.27.016-.42.087-.355.17-.674.26-.949.273a.832.832 0 01-.37-.093l.03-.478.003-.064c.094-1.518.211-3.408-.277-4.52C16.205 2.257 13.123 2 12.213 2"/></defs><use fill-rule="evenodd" xlink:href="#a"/></svg>