<svg xmlns="http://www.w3.org/2000/svg" viewBox="0 0 24 24"><path fill-rule="evenodd" d="M24 4.368a9.705 9.705 0 01-2.828.796 5.045 5.045 0 002.165-2.794 9.685 9.685 0 01-3.127 1.225A4.86 4.86 0 0016.616 2c-2.72 0-4.924 2.261-4.924 5.05 0 .396.043.78.127 1.15C7.728 7.99 4.1 5.98 1.672 2.926a5.111 5.111 0 00-.667 2.538 5.08 5.08 0 002.19 4.2 4.822 4.822 0 01-2.23-.63v.064c0 2.446 1.696 4.486 3.95 4.95a4.853 4.853 0 01-1.297.178c-.318 0-.626-.032-.926-.092.626 2.006 2.445 3.466 4.598 3.507A9.721 9.721 0 010 19.732 13.688 13.688 0 007.548 22c9.057 0 14.01-7.694 14.01-14.365 0-.22-.006-.436-.015-.653A10.155 10.155 0 0024 4.37v-.001z"/></svg>