<svg xmlns="http://www.w3.org/2000/svg" viewBox="0 0 24 24"><path fill-rule="evenodd" d="M23.987 10.508a25.814 25.814 0 00-.114-1.813 16.34 16.34 0 00-.288-1.96 3.083 3.083 0 00-.93-1.633 2.866 2.866 0 00-1.668-.77C19.004 4.11 16.009 4 12 4s-7.004.11-8.987.332a2.834 2.834 0 00-1.66.77 3.1 3.1 0 00-.924 1.634 14.58 14.58 0 00-.302 1.959c-.067.73-.105 1.335-.114 1.813C.004 10.986 0 11.65 0 12.5c0 .85.004 1.514.013 1.992.01.478.047 1.083.114 1.813s.163 1.384.288 1.96a3.08 3.08 0 00.931 1.633c.478.442 1.034.7 1.667.77C4.996 20.889 7.991 21 12 21c4.01 0 7.004-.11 8.987-.332a2.835 2.835 0 001.66-.77 3.1 3.1 0 00.924-1.634 14.6 14.6 0 00.302-1.959c.067-.73.105-1.335.114-1.813.009-.478.013-1.142.013-1.992 0-.85-.004-1.514-.013-1.992zm-7.246 2.71l-6.857 4.249a.768.768 0 01-.455.133.933.933 0 01-.416-.106.79.79 0 01-.441-.744v-8.5a.79.79 0 01.441-.744c.304-.16.594-.15.871.027l6.857 4.25c.268.15.402.39.402.717 0 .328-.134.567-.402.717z"/></svg>