<svg xmlns="http://www.w3.org/2000/svg" xmlns:xlink="http://www.w3.org/1999/xlink" viewBox="0 0 24 24"><defs><path id="a" d="M20.502 18.295h-2.416v1.164c0 .617.207.925.62.925.297 0 .478-.16.54-.482.019-.09.028-.362.028-.817h1.228v.174c0 .437-.01.696-.027.777-.027.24-.122.482-.284.723-.324.473-.81.71-1.457.71-.621 0-1.107-.229-1.458-.684-.26-.33-.39-.847-.39-1.553v-2.317c0-.705.125-1.223.377-1.554.351-.455.832-.682 1.444-.682.603 0 1.08.227 1.43.682.244.33.365.849.365 1.554v1.38zm-4.561 1.098c0 .652-.04 1.098-.122 1.34-.152.49-.472.735-.958.735-.432 0-.85-.245-1.255-.736v.643h-1.2v-8.88h1.2v2.907c.387-.482.805-.723 1.255-.723.486 0 .806.25.958.75.081.232.122.674.122 1.325v2.639zm-4.588 1.981h-1.201v-.723c-.487.545-.946.817-1.377.817-.414 0-.675-.165-.783-.495-.072-.214-.108-.54-.108-.978V14.76h1.2v4.875c0 .285.006.442.014.468.027.188.122.282.284.282.243 0 .5-.188.77-.563V14.76h1.2v6.615zm-3.644-7.62H6.265v7.62h-1.35v-7.62H3.5v-1.258h4.21v1.258zm4.29-3.576c3.34 0 5.835.09 7.49.268a2.48 2.48 0 011.384.63c.4.357.66.798.776 1.326.234 1 .351 2.563.351 4.687 0 2.09-.117 3.652-.351 4.688a2.54 2.54 0 01-.783 1.326 2.367 2.367 0 01-1.376.615c-1.655.188-4.153.282-7.49.282-3.337 0-5.834-.094-7.49-.282a2.399 2.399 0 01-1.383-.615c-.4-.358-.659-.8-.776-1.326-.234-1-.351-2.563-.351-4.688 0-2.09.117-3.652.35-4.687a2.54 2.54 0 01.784-1.326 2.454 2.454 0 011.39-.63c1.646-.178 4.138-.268 7.476-.268zm2.214 5.585c-.207 0-.409.099-.607.295v4.032c.198.195.4.294.607.294.35 0 .527-.3.527-.897V16.66c0-.598-.176-.898-.527-.898zm4.48 0c-.404 0-.607.304-.607.911v.616h1.215v-.616c0-.607-.203-.91-.607-.91zM11.718 2.21c.62 0 1.097.228 1.43.683.252.33.378.853.378 1.566v2.344c0 .723-.126 1.25-.378 1.58-.333.457-.81.684-1.43.684-.603 0-1.075-.227-1.417-.683-.252-.34-.378-.866-.378-1.58V4.458c0-.713.126-1.236.378-1.566.342-.455.814-.683 1.417-.683zm4.034.08v5.033c.002.219.006.336.014.351.027.197.121.295.283.295.244 0 .5-.192.77-.577V2.29h1.228v6.683h-1.229v-.736c-.476.553-.94.83-1.39.83-.413 0-.678-.165-.796-.495-.072-.215-.107-.55-.107-1.005V2.29h1.227zM6.656 0l.958 3.522L8.532 0h1.376L8.276 5.344v3.63h-1.35v-3.63c-.126-.66-.4-1.608-.823-2.84C5.77 1.584 5.478.75 5.226 0h1.43zm5.06 3.295c-.386 0-.58.307-.58.924V7.03c0 .626.194.938.58.938.388 0 .581-.312.581-.938V4.22c0-.617-.193-.924-.58-.924z"/></defs><use fill-rule="evenodd" xlink:href="#a"/></svg>